<svg width="24" height="24" viewBox="0 0 24 24" fill="none" xmlns="http://www.w3.org/2000/svg">
<mask id="mask0_45_1162" style="mask-type:alpha" maskUnits="userSpaceOnUse" x="0" y="0" width="24" height="24">
<rect width="24" height="24" fill="#D9D9D9"/>
</mask>
<g mask="url(#mask0_45_1162)">
<path d="M6.49998 10.1135L5.10573 10.8845C4.89173 11.005 4.67056 11.0368 4.44223 10.9798C4.21406 10.9228 4.03973 10.7872 3.91923 10.573L2.30398 7.74625C2.18348 7.53208 2.15173 7.30933 2.20873 7.078C2.26573 6.8465 2.40131 6.6705 2.61548 6.55L7.86548 3.5H9.34623C9.5154 3.5 9.65065 3.55067 9.75198 3.652C9.85315 3.75333 9.90373 3.88858 9.90373 4.05775V4.404C9.90373 4.97317 10.1108 5.46483 10.525 5.879C10.9391 6.293 11.4308 6.5 12 6.5C12.5691 6.5 13.0608 6.293 13.475 5.879C13.8891 5.46483 14.0962 4.97317 14.0962 4.404V4.05775C14.0962 3.88858 14.1468 3.75333 14.248 3.652C14.3493 3.55067 14.4846 3.5 14.6537 3.5H16.1345L21.3845 6.55C21.5986 6.6705 21.7342 6.8465 21.7912 7.078C21.8482 7.30933 21.8165 7.53208 21.696 7.74625L20.0807 10.573C19.9602 10.7872 19.7884 10.9202 19.5652 10.972C19.3422 11.024 19.1186 10.9898 18.8942 10.8693L17.5 10.1288V19.6152C17.5 19.8666 17.4153 20.0768 17.246 20.246C17.0768 20.4153 16.8666 20.5 16.6152 20.5H7.38473C7.1334 20.5 6.92315 20.4153 6.75398 20.246C6.58465 20.0768 6.49998 19.8666 6.49998 19.6152V10.1135ZM7.99998 7.6V19H16V7.6L19.0807 9.2905L20.1115 7.55L15.8212 5.03075H15.5037C15.3499 5.87442 14.9512 6.58017 14.3077 7.148C13.6641 7.716 12.8948 8 12 8C11.1051 8 10.3359 7.716 9.69223 7.148C9.04873 6.58017 8.65006 5.87442 8.49623 5.03075H8.17873L3.88848 7.55L4.91923 9.2905L7.99998 7.6Z" fill="#667080"/>
</g>
</svg>
