<svg width="24" height="24" viewBox="0 0 24 24" fill="none" xmlns="http://www.w3.org/2000/svg">
<mask id="mask0_43_7703" style="mask-type:alpha" maskUnits="userSpaceOnUse" x="0" y="0" width="24" height="24">
<rect width="24" height="24" fill="#D9D9D9"/>
</mask>
<g mask="url(#mask0_43_7703)">
<path d="M5.30775 21.5C4.80258 21.5 4.375 21.325 4.025 20.975C3.675 20.625 3.5 20.1974 3.5 19.6923V6.30775C3.5 5.80258 3.675 5.375 4.025 5.025C4.375 4.675 4.80258 4.5 5.30775 4.5H6.69225V2.38475H8.23075V4.5H15.8077V2.38475H17.3077V4.5H18.6923C19.1974 4.5 19.625 4.675 19.975 5.025C20.325 5.375 20.5 5.80258 20.5 6.30775V19.6923C20.5 20.1974 20.325 20.625 19.975 20.975C19.625 21.325 19.1974 21.5 18.6923 21.5H5.30775ZM5.30775 20H18.6923C18.7693 20 18.8398 19.9679 18.9038 19.9038C18.9679 19.8398 19 19.7693 19 19.6923V10.3078H5V19.6923C5 19.7693 5.03208 19.8398 5.09625 19.9038C5.16025 19.9679 5.23075 20 5.30775 20ZM5 8.80775H19V6.30775C19 6.23075 18.9679 6.16025 18.9038 6.09625C18.8398 6.03208 18.7693 6 18.6923 6H5.30775C5.23075 6 5.16025 6.03208 5.09625 6.09625C5.03208 6.16025 5 6.23075 5 6.30775V8.80775ZM12 14.077C11.7552 14.077 11.5465 13.9908 11.374 13.8183C11.2017 13.6459 11.1155 13.4373 11.1155 13.1923C11.1155 12.9474 11.2017 12.7387 11.374 12.5662C11.5465 12.3939 11.7552 12.3077 12 12.3077C12.2448 12.3077 12.4535 12.3939 12.626 12.5662C12.7983 12.7387 12.8845 12.9474 12.8845 13.1923C12.8845 13.4373 12.7983 13.6459 12.626 13.8183C12.4535 13.9908 12.2448 14.077 12 14.077ZM8 14.077C7.75517 14.077 7.5465 13.9908 7.374 13.8183C7.20167 13.6459 7.1155 13.4373 7.1155 13.1923C7.1155 12.9474 7.20167 12.7387 7.374 12.5662C7.5465 12.3939 7.75517 12.3077 8 12.3077C8.24483 12.3077 8.4535 12.3939 8.626 12.5662C8.79833 12.7387 8.8845 12.9474 8.8845 13.1923C8.8845 13.4373 8.79833 13.6459 8.626 13.8183C8.4535 13.9908 8.24483 14.077 8 14.077ZM16 14.077C15.7552 14.077 15.5465 13.9908 15.374 13.8183C15.2017 13.6459 15.1155 13.4373 15.1155 13.1923C15.1155 12.9474 15.2017 12.7387 15.374 12.5662C15.5465 12.3939 15.7552 12.3077 16 12.3077C16.2448 12.3077 16.4535 12.3939 16.626 12.5662C16.7983 12.7387 16.8845 12.9474 16.8845 13.1923C16.8845 13.4373 16.7983 13.6459 16.626 13.8183C16.4535 13.9908 16.2448 14.077 16 14.077ZM12 18C11.7552 18 11.5465 17.9138 11.374 17.7413C11.2017 17.5689 11.1155 17.3603 11.1155 17.1155C11.1155 16.8705 11.2017 16.6618 11.374 16.4895C11.5465 16.317 11.7552 16.2308 12 16.2308C12.2448 16.2308 12.4535 16.317 12.626 16.4895C12.7983 16.6618 12.8845 16.8705 12.8845 17.1155C12.8845 17.3603 12.7983 17.5689 12.626 17.7413C12.4535 17.9138 12.2448 18 12 18ZM8 18C7.75517 18 7.5465 17.9138 7.374 17.7413C7.20167 17.5689 7.1155 17.3603 7.1155 17.1155C7.1155 16.8705 7.20167 16.6618 7.374 16.4895C7.5465 16.317 7.75517 16.2308 8 16.2308C8.24483 16.2308 8.4535 16.317 8.626 16.4895C8.79833 16.6618 8.8845 16.8705 8.8845 17.1155C8.8845 17.3603 8.79833 17.5689 8.626 17.7413C8.4535 17.9138 8.24483 18 8 18ZM16 18C15.7552 18 15.5465 17.9138 15.374 17.7413C15.2017 17.5689 15.1155 17.3603 15.1155 17.1155C15.1155 16.8705 15.2017 16.6618 15.374 16.4895C15.5465 16.317 15.7552 16.2308 16 16.2308C16.2448 16.2308 16.4535 16.317 16.626 16.4895C16.7983 16.6618 16.8845 16.8705 16.8845 17.1155C16.8845 17.3603 16.7983 17.5689 16.626 17.7413C16.4535 17.9138 16.2448 18 16 18Z" fill="#667080"/>
</g>
</svg>
