<svg width="24" height="24" viewBox="0 0 24 24" fill="none" xmlns="http://www.w3.org/2000/svg">
<mask id="mask0_45_1150" style="mask-type:alpha" maskUnits="userSpaceOnUse" x="0" y="0" width="24" height="24">
<rect width="24" height="24" fill="#D9D9D9"/>
</mask>
<g mask="url(#mask0_45_1150)">
<path d="M10.3365 19.3307V13.71L11.7172 9.7655C11.7814 9.63333 11.8686 9.524 11.9787 9.4375C12.0891 9.351 12.2352 9.30775 12.4172 9.30775H19.6405C19.813 9.30775 19.9609 9.351 20.0842 9.4375C20.2076 9.524 20.2929 9.63333 20.3402 9.7655L21.7212 13.71V19.3307C21.7212 19.4816 21.6698 19.6084 21.567 19.7113C21.4642 19.8139 21.3373 19.8652 21.1865 19.8652H20.7557C20.6049 19.8652 20.4782 19.8139 20.3755 19.7113C20.2727 19.6084 20.2212 19.4816 20.2212 19.3307V18.2693H11.8365V19.3307C11.8365 19.4816 11.7851 19.6084 11.6822 19.7113C11.5794 19.8139 11.4527 19.8652 11.302 19.8652H10.8712C10.7204 19.8652 10.5936 19.8139 10.4907 19.7113C10.3879 19.6084 10.3365 19.4816 10.3365 19.3307ZM11.952 12.7308H20.1057L19.3287 10.5H12.7287L11.952 12.7308ZM13.0672 16.4038C13.3342 16.4038 13.5581 16.3135 13.7387 16.133C13.9192 15.9523 14.0095 15.7285 14.0095 15.4615C14.0095 15.1945 13.9192 14.9707 13.7387 14.7902C13.5581 14.6096 13.3342 14.5192 13.0672 14.5192C12.8002 14.5192 12.5765 14.6096 12.396 14.7902C12.2153 14.9707 12.125 15.1945 12.125 15.4615C12.125 15.7285 12.2153 15.9523 12.396 16.133C12.5765 16.3135 12.8002 16.4038 13.0672 16.4038ZM18.9905 16.4038C19.2573 16.4038 19.4811 16.3135 19.6617 16.133C19.8424 15.9523 19.9327 15.7285 19.9327 15.4615C19.9327 15.1945 19.8424 14.9707 19.6617 14.7902C19.4811 14.6096 19.2573 14.5192 18.9905 14.5192C18.7235 14.5192 18.4997 14.6096 18.319 14.7902C18.1383 14.9707 18.048 15.1945 18.048 15.4615C18.048 15.7285 18.1383 15.9523 18.319 16.133C18.4997 16.3135 18.7235 16.4038 18.9905 16.4038ZM4.27875 19.75V19.0962L5.625 17.75C4.74033 17.75 3.9615 17.5016 3.2885 17.0048C2.61533 16.5079 2.27875 15.8397 2.27875 15V6.75C2.27875 5.8615 2.77366 5.22275 3.7635 4.83375C4.75316 4.44458 6.34158 4.25 8.52875 4.25C10.7776 4.25 12.3814 4.43942 13.3402 4.81825C14.2992 5.19708 14.7787 5.841 14.7787 6.75V7.923H13.2787V6.75H3.77875V13.25H8.952V19.75H4.27875ZM5.02875 15.9423C5.29575 15.9423 5.51958 15.852 5.70025 15.6715C5.88091 15.4908 5.97125 15.267 5.97125 15C5.97125 14.733 5.88091 14.5092 5.70025 14.3285C5.51958 14.148 5.29575 14.0577 5.02875 14.0577C4.76175 14.0577 4.538 14.148 4.3575 14.3285C4.17683 14.5092 4.0865 14.733 4.0865 15C4.0865 15.267 4.17683 15.4908 4.3575 15.6715C4.538 15.852 4.76175 15.9423 5.02875 15.9423ZM11.5287 17.077H20.5287V13.923H11.5287V17.077Z" fill="#667080"/>
</g>
</svg>
