<svg width="24" height="24" viewBox="0 0 24 24" fill="none" xmlns="http://www.w3.org/2000/svg">
<mask id="mask0_322_1197" style="mask-type:alpha" maskUnits="userSpaceOnUse" x="0" y="0" width="24" height="24">
<rect width="24" height="24" fill="#D9D9D9"/>
</mask>
<g mask="url(#mask0_322_1197)">
<path d="M4.72499 19.75C3.78265 19.75 2.9814 19.4173 2.32124 18.752C1.6609 18.0865 1.32049 17.2762 1.29999 16.321C1.29999 16.18 1.30674 16.0409 1.32024 15.9038C1.33374 15.7666 1.35715 15.6262 1.39049 15.4827L3.49049 7.08275C3.70932 6.23992 4.15482 5.55708 4.82699 5.03425C5.49915 4.51142 6.26515 4.25 7.12499 4.25H16.875C17.7348 4.25 18.5008 4.51142 19.173 5.03425C19.8452 5.55708 20.2907 6.23992 20.5095 7.08275L22.6095 15.4827C22.6428 15.6262 22.6704 15.7708 22.6922 15.9163C22.7141 16.0618 22.725 16.205 22.725 16.346C22.725 17.3012 22.3882 18.1073 21.7145 18.7645C21.0407 19.4215 20.2277 19.75 19.2757 19.75C18.6201 19.75 18.0147 19.5779 17.4597 19.2337C16.9046 18.8894 16.4834 18.423 16.1962 17.8345L15.4865 16.375C15.384 16.1667 15.2302 16.0104 15.025 15.9062C14.8198 15.8021 14.6032 15.75 14.375 15.75H9.62499C9.39849 15.75 9.18224 15.8013 8.97624 15.9038C8.77024 16.0064 8.61599 16.1635 8.51349 16.375L7.80374 17.8345C7.52307 18.4295 7.10299 18.8975 6.54349 19.2385C5.98399 19.5795 5.37782 19.75 4.72499 19.75ZM4.80249 18.25C5.16232 18.25 5.49224 18.1538 5.79224 17.9615C6.09224 17.7692 6.31857 17.5122 6.47124 17.1905L7.17124 15.7558C7.40141 15.2843 7.73907 14.9154 8.18424 14.6493C8.62941 14.3831 9.10966 14.25 9.62499 14.25H14.375C14.8943 14.25 15.3754 14.3888 15.8182 14.6663C16.2612 14.9439 16.6064 15.3103 16.8537 15.7655L17.5537 17.1905C17.7064 17.5122 17.9327 17.7692 18.2327 17.9615C18.5327 18.1538 18.8648 18.25 19.229 18.25C19.7658 18.25 20.226 18.0702 20.6095 17.7105C20.993 17.351 21.1898 16.9058 21.2 16.375C21.2 16.366 21.1802 16.1884 21.1405 15.8422L19.0405 7.46725C18.911 6.96592 18.6472 6.55442 18.249 6.23275C17.851 5.91092 17.393 5.75 16.875 5.75H7.12499C6.60015 5.75 6.13624 5.91092 5.73324 6.23275C5.33024 6.55442 5.07232 6.96592 4.95949 7.46725L2.85949 15.8422C2.83265 15.9294 2.81282 16.0987 2.79999 16.35C2.79999 16.8873 2.99649 17.3383 3.38949 17.703C3.78232 18.0677 4.25332 18.25 4.80249 18.25ZM13.5 10.8845C13.7448 10.8845 13.9535 10.7983 14.126 10.626C14.2983 10.4535 14.3845 10.2448 14.3845 10C14.3845 9.75517 14.2983 9.5465 14.126 9.374C13.9535 9.20167 13.7448 9.1155 13.5 9.1155C13.2552 9.1155 13.0465 9.20167 12.874 9.374C12.7017 9.5465 12.6155 9.75517 12.6155 10C12.6155 10.2448 12.7017 10.4535 12.874 10.626C13.0465 10.7983 13.2552 10.8845 13.5 10.8845ZM15.5 8.8845C15.7448 8.8845 15.9535 8.79833 16.126 8.626C16.2983 8.4535 16.3845 8.24483 16.3845 8C16.3845 7.75517 16.2983 7.5465 16.126 7.374C15.9535 7.20167 15.7448 7.1155 15.5 7.1155C15.2552 7.1155 15.0465 7.20167 14.874 7.374C14.7017 7.5465 14.6155 7.75517 14.6155 8C14.6155 8.24483 14.7017 8.4535 14.874 8.626C15.0465 8.79833 15.2552 8.8845 15.5 8.8845ZM15.5 12.8845C15.7448 12.8845 15.9535 12.7983 16.126 12.626C16.2983 12.4535 16.3845 12.2448 16.3845 12C16.3845 11.7552 16.2983 11.5465 16.126 11.374C15.9535 11.2017 15.7448 11.1155 15.5 11.1155C15.2552 11.1155 15.0465 11.2017 14.874 11.374C14.7017 11.5465 14.6155 11.7552 14.6155 12C14.6155 12.2448 14.7017 12.4535 14.874 12.626C15.0465 12.7983 15.2552 12.8845 15.5 12.8845ZM17.5 10.8845C17.7448 10.8845 17.9535 10.7983 18.126 10.626C18.2983 10.4535 18.3845 10.2448 18.3845 10C18.3845 9.75517 18.2983 9.5465 18.126 9.374C17.9535 9.20167 17.7448 9.1155 17.5 9.1155C17.2552 9.1155 17.0465 9.20167 16.874 9.374C16.7017 9.5465 16.6155 9.75517 16.6155 10C16.6155 10.2448 16.7017 10.4535 16.874 10.626C17.0465 10.7983 17.2552 10.8845 17.5 10.8845ZM8.49949 12.3463C8.67166 12.3463 8.81415 12.2899 8.92699 12.1772C9.03982 12.0646 9.09624 11.9222 9.09624 11.75V10.5962H10.25C10.4222 10.5962 10.5646 10.5399 10.6772 10.4273C10.7899 10.3148 10.8462 10.1725 10.8462 10.0005C10.8462 9.82833 10.7899 9.68583 10.6772 9.573C10.5646 9.46017 10.4222 9.40375 10.25 9.40375H9.09624V8.25C9.09624 8.07783 9.03991 7.93542 8.92724 7.82275C8.81474 7.71008 8.67249 7.65375 8.50049 7.65375C8.32832 7.65375 8.18582 7.71008 8.07299 7.82275C7.96016 7.93542 7.90374 8.07783 7.90374 8.25V9.40375H6.74999C6.57782 9.40375 6.4354 9.46008 6.32274 9.57275C6.21007 9.68525 6.15374 9.8275 6.15374 9.9995C6.15374 10.1717 6.21007 10.3142 6.32274 10.427C6.4354 10.5398 6.57782 10.5962 6.74999 10.5962H7.90374V11.75C7.90374 11.9222 7.96007 12.0646 8.07274 12.1772C8.18524 12.2899 8.32749 12.3463 8.49949 12.3463Z" fill="#667080"/>
</g>
</svg>
