<svg width="24" height="24" viewBox="0 0 24 24" fill="none" xmlns="http://www.w3.org/2000/svg">
<mask id="mask0_45_998" style="mask-type:alpha" maskUnits="userSpaceOnUse" x="0" y="0" width="24" height="24">
<rect width="24" height="24" fill="#D9D9D9"/>
</mask>
<g mask="url(#mask0_45_998)">
<path d="M11.3848 19.5C11.1334 19.5 10.9232 19.4153 10.754 19.246C10.5847 19.0768 10.5 18.8666 10.5 18.6152V12.827L4.90202 5.7155C4.70969 5.459 4.68177 5.19233 4.81827 4.9155C4.95494 4.6385 5.18544 4.5 5.50977 4.5H18.4903C18.8146 4.5 19.0451 4.6385 19.1818 4.9155C19.3183 5.19233 19.2904 5.459 19.098 5.7155L13.5 12.827V18.6152C13.5 18.8666 13.4154 19.0768 13.246 19.246C13.0769 19.4153 12.8666 19.5 12.6153 19.5H11.3848ZM12 12.3L16.95 6H7.05002L12 12.3Z" fill="#667080"/>
</g>
</svg>
