<svg width="115" height="115" viewBox="0 0 115 115" fill="none" xmlns="http://www.w3.org/2000/svg">
<mask id="mask0_64_1439" style="mask-type:alpha" maskUnits="userSpaceOnUse" x="0" y="0" width="115" height="115">
<rect width="115" height="115" fill="#D9D9D9"/>
</mask>
<g mask="url(#mask0_64_1439)">
<path d="M69.7492 57.0856L65.8883 53.178L86.52 26.9999H39.709L34.2717 21.5626H91.2745C92.5523 21.5626 93.4983 22.1448 94.1124 23.3091C94.7265 24.4727 94.5975 25.5644 93.7255 26.5842L69.7492 57.0856ZM98.4429 104.606L66.2932 72.5016V89.1981C66.2932 90.4025 65.8875 91.4099 65.0761 92.2205C64.2655 93.0319 63.2581 93.4376 62.0537 93.4376H56.1576C54.9533 93.4376 53.9459 93.0319 53.1353 92.2205C52.3239 91.4099 51.9182 90.4025 51.9182 89.1981V58.1266L12 18.1629L15.9076 14.302L102.304 100.698L98.4429 104.606Z" fill="#667080"/>
</g>
</svg>
