<svg width="24" height="24" viewBox="0 0 24 24" fill="none" xmlns="http://www.w3.org/2000/svg">
<mask id="mask0_45_1100" style="mask-type:alpha" maskUnits="userSpaceOnUse" x="0" y="0" width="24" height="24">
<rect width="24" height="24" fill="#D9D9D9"/>
</mask>
<g mask="url(#mask0_45_1100)">
<path d="M16 21.5C14.4743 21.5 13.1763 20.9648 12.1058 19.8943C11.0353 18.8238 10.5 17.5257 10.5 16C10.5 14.4743 11.0353 13.1763 12.1058 12.1058C13.1763 11.0353 14.4743 10.5 16 10.5C17.5257 10.5 18.8238 11.0353 19.8943 12.1058C20.9648 13.1763 21.5 14.4743 21.5 16C21.5 17.5257 20.9648 18.8238 19.8943 19.8943C18.8238 20.9648 17.5257 21.5 16 21.5ZM16 20C17.1 20 18.0417 19.6083 18.825 18.825C19.6083 18.0417 20 17.1 20 16C20 14.9 19.6083 13.9583 18.825 13.175C18.0417 12.3917 17.1 12 16 12C14.9 12 13.9583 12.3917 13.175 13.175C12.3917 13.9583 12 14.9 12 16C12 17.1 12.3917 18.0417 13.175 18.825C13.9583 19.6083 14.9 20 16 20ZM4.30775 19.5C3.80258 19.5 3.375 19.325 3.025 18.975C2.675 18.625 2.5 18.1974 2.5 17.6923V10.4577C2.5 10.3244 2.51892 10.1814 2.55675 10.0288C2.59458 9.87625 2.6385 9.73333 2.6885 9.6L4.804 4.80775H4.327C4.07567 4.80775 3.87183 4.7295 3.7155 4.573C3.559 4.41667 3.48075 4.21283 3.48075 3.9615V3.34625C3.48075 3.09492 3.559 2.89108 3.7155 2.73475C3.87183 2.57825 4.07567 2.5 4.327 2.5H10.673C10.9243 2.5 11.1282 2.57825 11.2845 2.73475C11.441 2.89108 11.5192 3.09492 11.5192 3.34625V3.9615C11.5192 4.21283 11.441 4.41667 11.2845 4.573C11.1282 4.7295 10.9243 4.80775 10.673 4.80775H10.196L12.2692 9.53075C12.0422 9.65258 11.824 9.78592 11.6145 9.93075C11.4048 10.0756 11.2038 10.2391 11.0115 10.4212L8.5845 4.80775H6.4155L4 10.3712V17.6923C4 17.7821 4.02883 17.8558 4.0865 17.9135C4.14417 17.9712 4.21792 18 4.30775 18H8.76925C8.83342 18.2667 8.91867 18.5276 9.025 18.7828C9.1315 19.0378 9.25583 19.2768 9.398 19.5H4.30775ZM16 9.30775C15.4347 9.25008 14.96 9.01325 14.576 8.59725C14.192 8.18108 14 7.68075 14 7.09625C14 6.51158 14.192 6.01125 14.576 5.59525C14.96 5.17925 15.4347 4.94242 16 4.88475V9.30775C16.0577 8.74242 16.2945 8.26775 16.7105 7.88375C17.1265 7.49975 17.6268 7.30775 18.2115 7.30775C18.7962 7.30775 19.2965 7.49975 19.7125 7.88375C20.1285 8.26775 20.3653 8.74242 20.423 9.30775H16Z" fill="#667080"/>
</g>
</svg>
