<svg width="24" height="24" viewBox="0 0 24 24" fill="none" xmlns="http://www.w3.org/2000/svg">
<mask id="mask0_322_1233" style="mask-type:alpha" maskUnits="userSpaceOnUse" x="0" y="0" width="24" height="24">
<rect width="24" height="24" fill="#D9D9D9"/>
</mask>
<g mask="url(#mask0_322_1233)">
<path d="M13.482 21.5C11.8175 21.5 10.3996 20.9163 9.22825 19.749C8.05692 18.5817 7.47125 17.1653 7.47125 15.5V14.9537C6.12125 14.7782 4.99209 14.1763 4.08375 13.148C3.17542 12.1198 2.72125 10.9038 2.72125 9.5V3.75H5.72125V2.75H7.22125V6.25H5.72125V5.25H4.22125V9.5C4.22125 10.6 4.61292 11.5417 5.39625 12.325C6.17959 13.1083 7.12125 13.5 8.22125 13.5C9.32125 13.5 10.2629 13.1083 11.0463 12.325C11.8296 11.5417 12.2213 10.6 12.2213 9.5V5.25H10.7213V6.25H9.22125V2.75H10.7213V3.75H13.7213V9.5C13.7213 10.9038 13.2671 12.1198 12.3588 13.148C11.4504 14.1763 10.3213 14.7782 8.97125 14.9537V15.5C8.97125 16.75 9.40967 17.8125 10.2865 18.6875C11.1633 19.5625 12.2281 20 13.4808 20C14.7308 20 15.7933 19.5625 16.6683 18.6875C17.5433 17.8125 17.9808 16.75 17.9808 15.5V13.8828C17.4551 13.7276 17.0224 13.4253 16.6828 12.976C16.3429 12.5267 16.173 12.0154 16.173 11.4423C16.173 10.7319 16.4218 10.1281 16.9195 9.63075C17.417 9.13342 18.0212 8.88475 18.732 8.88475C19.4427 8.88475 20.0464 9.13342 20.5433 9.63075C21.0401 10.1281 21.2885 10.7319 21.2885 11.4423C21.2885 12.0154 21.1186 12.5267 20.7788 12.976C20.4391 13.4253 20.0064 13.7276 19.4808 13.8828V15.5C19.4808 17.1653 18.8971 18.5817 17.7298 19.749C16.5624 20.9163 15.1465 21.5 13.482 21.5ZM18.7308 12.5C19.0269 12.5 19.2773 12.3978 19.4818 12.1933C19.6863 11.9888 19.7885 11.7384 19.7885 11.4423C19.7885 11.1461 19.6863 10.8958 19.4818 10.6915C19.2773 10.487 19.0269 10.3848 18.7308 10.3848C18.4346 10.3848 18.1843 10.487 17.9798 10.6915C17.7753 10.8958 17.673 11.1461 17.673 11.4423C17.673 11.7384 17.7753 11.9888 17.9798 12.1933C18.1843 12.3978 18.4346 12.5 18.7308 12.5Z" fill="#667080"/>
</g>
</svg>
