<svg width="24" height="24" viewBox="0 0 24 24" fill="none" xmlns="http://www.w3.org/2000/svg">
<mask id="mask0_45_1138" style="mask-type:alpha" maskUnits="userSpaceOnUse" x="0" y="0" width="24" height="24">
<rect width="24" height="24" fill="#D9D9D9"/>
</mask>
<g mask="url(#mask0_45_1138)">
<path d="M4.33647 20.6538L3.28272 19.6L13.475 9.40775C13.1558 8.65642 13.0981 7.86634 13.302 7.0375C13.5058 6.20867 13.9584 5.45384 14.6597 4.773C15.4276 4.00517 16.3275 3.52059 17.3595 3.31925C18.3916 3.11792 19.243 3.3525 19.9135 4.023C20.584 4.6935 20.8186 5.54484 20.6172 6.577C20.4159 7.609 19.9313 8.509 19.1635 9.277C18.4826 9.97817 17.7278 10.4307 16.899 10.6345C16.0701 10.8383 15.2801 10.7807 14.5287 10.4615L12.9902 12L20.5902 19.6L19.5365 20.6538L11.9365 13.1038L4.33647 20.6538ZM7.34422 12.1615L4.45972 9.277C3.63655 8.45384 3.21055 7.475 3.18172 6.3405C3.15289 5.20584 3.52755 4.20775 4.30572 3.34625L10.2172 9.2885L7.34422 12.1615Z" fill="#667080"/>
</g>
</svg>
