<svg width="25" height="25" viewBox="0 0 25 25" fill="none" xmlns="http://www.w3.org/2000/svg">
<mask id="mask0_326_2417" style="mask-type:alpha" maskUnits="userSpaceOnUse" x="0" y="0" width="25" height="25">
<rect x="0.293457" y="0.327942" width="24" height="24" fill="#D9D9D9"/>
</mask>
<g mask="url(#mask0_326_2417)">
<path d="M19.2935 14.7127V7.96269L14.0435 4.28944L8.79348 7.96269V10.0587H7.29348V7.22219L14.0435 2.40494L20.7935 7.22219V14.7127H19.2935ZM14.5915 8.54919H15.4955V7.64519H14.5915V8.54919ZM12.5915 8.54919H13.4955V7.64519H12.5915V8.54919ZM14.5915 10.5492H15.4955V9.64519H14.5915V10.5492ZM12.5915 10.5492H13.4955V9.64519H12.5915V10.5492ZM6.99548 18.9049L14.253 20.9587L20.2222 19.1087C20.1711 18.8819 20.0653 18.7079 19.905 18.5867C19.7447 18.4655 19.5632 18.4049 19.3607 18.4049H14.4635C14.0271 18.4049 13.6564 18.3883 13.3512 18.3549C13.0461 18.3216 12.7326 18.2485 12.4107 18.1357L10.1532 17.3894L10.5972 15.9202L12.6222 16.6242C12.9249 16.7267 13.2743 16.7965 13.6705 16.8337C14.0667 16.8709 14.6301 16.8946 15.3607 16.9049C15.3607 16.6574 15.305 16.4439 15.1935 16.2644C15.082 16.0849 14.9351 15.9638 14.753 15.9009L8.95123 13.7702C8.9319 13.7639 8.91423 13.7591 8.89823 13.7559C8.88223 13.7526 8.86465 13.7509 8.84548 13.7509H6.99548V18.9049ZM1.99548 21.8279V12.2512H8.83398C8.93898 12.2512 9.04532 12.2627 9.15298 12.2857C9.26082 12.3089 9.36082 12.3358 9.45298 12.3664L15.28 14.5127C15.7338 14.6805 16.1107 14.9776 16.4107 15.4039C16.7107 15.8303 16.8607 16.3306 16.8607 16.9049H19.3607C20.0787 16.9049 20.6637 17.1367 21.1155 17.6002C21.5675 18.0635 21.7935 18.6651 21.7935 19.4049V20.2124L14.303 22.5394L6.99548 20.4549V21.8279H1.99548ZM3.49548 20.3279H5.49548V13.7509H3.49548V20.3279Z" fill="#667080"/>
</g>
</svg>
