<svg width="24" height="24" viewBox="0 0 24 24" fill="none" xmlns="http://www.w3.org/2000/svg">
<mask id="mask0_184_1608" style="mask-type:alpha" maskUnits="userSpaceOnUse" x="0" y="0" width="24" height="24">
<rect width="24" height="24" fill="#D9D9D9"/>
</mask>
<g mask="url(#mask0_184_1608)">
<path d="M12.0385 19.5C9.94468 19.5 8.17126 18.7736 6.71826 17.3207C5.2651 15.8679 4.53851 14.0948 4.53851 12.0015C4.53851 9.90817 5.2651 8.13458 6.71826 6.68075C8.17126 5.22692 9.94468 4.5 12.0385 4.5C13.2077 4.5 14.3141 4.75992 15.3578 5.27975C16.4013 5.79975 17.2692 6.53342 17.9615 7.48075V4.5H19.4615V10.6152H13.3463V9.1155H17.2963C16.7693 8.15 16.0384 7.38942 15.1038 6.83375C14.1693 6.27792 13.1475 6 12.0385 6C10.3718 6 8.95518 6.58333 7.78851 7.75C6.62185 8.91667 6.03851 10.3333 6.03851 12C6.03851 13.6667 6.62185 15.0833 7.78851 16.25C8.95518 17.4167 10.3718 18 12.0385 18C13.3218 18 14.4802 17.6333 15.5135 16.9C16.5468 16.1667 17.2718 15.2 17.6885 14H19.2693C18.8154 15.632 17.9215 16.9567 16.5875 17.974C15.2535 18.9913 13.7372 19.5 12.0385 19.5Z" fill="#667080"/>
</g>
</svg>
