<svg width="24" height="24" viewBox="0 0 24 24" fill="none" xmlns="http://www.w3.org/2000/svg">
<mask id="mask0_322_1215" style="mask-type:alpha" maskUnits="userSpaceOnUse" x="0" y="0" width="24" height="24">
<rect width="24" height="24" fill="#D9D9D9"/>
</mask>
<g mask="url(#mask0_322_1215)">
<path d="M20.25 21.75V7C20.25 6.38117 20.0297 5.8515 19.589 5.411C19.1485 4.97033 18.6188 4.75 18 4.75H16.75V6.05C16.75 6.25 16.6833 6.41667 16.55 6.55C16.4167 6.68333 16.25 6.75 16.05 6.75H11.0848C10.8321 6.75 10.6413 6.62983 10.5125 6.3895C10.3837 6.149 10.3744 5.91208 10.4848 5.67875L12.202 1.9635C12.3122 1.72633 12.4637 1.54808 12.6567 1.42875C12.8497 1.30958 13.0898 1.25 13.377 1.25H15.6193C15.9423 1.25 16.2115 1.36792 16.427 1.60375C16.6423 1.83975 16.75 2.11925 16.75 2.44225V3.25H18C19.0358 3.25 19.9198 3.616 20.652 4.348C21.384 5.08017 21.75 5.96417 21.75 7V21.75H20.25ZM12.3152 5.25H15.25V2.75H13.4365L12.3152 5.25ZM5 21.75C4.22083 21.75 3.56775 21.4864 3.04075 20.9592C2.51358 20.4322 2.25 19.7792 2.25 19V16.5C2.25 15.9692 2.43017 15.4871 2.7905 15.0538C3.15067 14.6204 3.63717 14.373 4.25 14.3115V12.0577C4.25 11.5606 4.427 11.135 4.781 10.781C5.135 10.427 5.56058 10.25 6.05775 10.25H13.9423C14.4394 10.25 14.865 10.427 15.219 10.781C15.573 11.135 15.75 11.5606 15.75 12.0577V14.3115C16.3628 14.373 16.8493 14.6096 17.2095 15.0212C17.5698 15.4327 17.75 15.9257 17.75 16.5V19C17.75 19.7792 17.4864 20.4322 16.9593 20.9592C16.4323 21.4864 15.7792 21.75 15 21.75H5ZM5.75 12.0577V14.6155C6.05 14.827 6.29167 15.1036 6.475 15.4453C6.65833 15.7869 6.75 16.1385 6.75 16.5V17.25H13.25V16.5C13.25 16.1385 13.3417 15.7869 13.525 15.4453C13.7083 15.1036 13.95 14.827 14.25 14.6155V12.0577C14.25 11.9679 14.2212 11.8942 14.1635 11.8365C14.1058 11.7788 14.0321 11.75 13.9423 11.75H6.05775C5.96792 11.75 5.89417 11.7788 5.8365 11.8365C5.77883 11.8942 5.75 11.9679 5.75 12.0577ZM5 20.25H15C15.375 20.25 15.6771 20.1198 15.9062 19.8595C16.1354 19.599 16.25 19.3125 16.25 19V16.5C16.25 16.275 16.1811 16.0938 16.0433 15.9563C15.9054 15.8188 15.7237 15.75 15.498 15.75C15.2723 15.75 15.0913 15.8188 14.9548 15.9563C14.8183 16.0938 14.75 16.275 14.75 16.5V18.75H5.25V16.5C5.25 16.275 5.18108 16.0938 5.04325 15.9563C4.90542 15.8188 4.72367 15.75 4.498 15.75C4.27233 15.75 4.09125 15.8188 3.95475 15.9563C3.81825 16.0938 3.75 16.275 3.75 16.5V19C3.75 19.3125 3.86458 19.599 4.09375 19.8595C4.32292 20.1198 4.625 20.25 5 20.25Z" fill="#667080"/>
</g>
</svg>
