<svg width="24" height="24" viewBox="0 0 24 24" fill="none" xmlns="http://www.w3.org/2000/svg">
<mask id="mask0_45_1237" style="mask-type:alpha" maskUnits="userSpaceOnUse" x="0" y="0" width="24" height="24">
<rect width="24" height="24" fill="#D9D9D9"/>
</mask>
<g mask="url(#mask0_45_1237)">
<path d="M13.75 12.7115C13.0513 12.7115 12.46 12.4695 11.976 11.9855C11.492 11.5015 11.25 10.9102 11.25 10.2115C11.25 9.51283 11.492 8.92149 11.976 8.43749C12.46 7.95349 13.0513 7.71149 13.75 7.71149C14.4487 7.71149 15.04 7.95349 15.524 8.43749C16.008 8.92149 16.25 9.51283 16.25 10.2115C16.25 10.9102 16.008 11.5015 15.524 11.9855C15.04 12.4695 14.4487 12.7115 13.75 12.7115ZM7.15375 15.8077C6.65675 15.8077 6.23125 15.6307 5.87725 15.2767C5.52325 14.9227 5.34625 14.4972 5.34625 14V6.42299C5.34625 5.92599 5.52325 5.50049 5.87725 5.14649C6.23125 4.79249 6.65675 4.61549 7.15375 4.61549H20.346C20.8432 4.61549 21.2688 4.79249 21.6228 5.14649C21.9768 5.50049 22.1538 5.92599 22.1538 6.42299V14C22.1538 14.4972 21.9768 14.9227 21.6228 15.2767C21.2688 15.6307 20.8432 15.8077 20.346 15.8077H7.15375ZM8.65375 14.3077H18.8463C18.8463 13.8091 19.0233 13.3831 19.3773 13.0297C19.7313 12.6766 20.1568 12.5 20.6538 12.5V7.92299C20.1551 7.92299 19.7292 7.74599 19.376 7.39199C19.0228 7.03799 18.8463 6.61249 18.8463 6.11549H8.65375C8.65375 6.61416 8.47675 7.04008 8.12275 7.39324C7.76875 7.74641 7.34325 7.92299 6.84625 7.92299V12.5C7.34492 12.5 7.77084 12.677 8.124 13.031C8.47717 13.385 8.65375 13.8106 8.65375 14.3077ZM18.423 19.3077H3.654C3.15684 19.3077 2.73125 19.1307 2.37725 18.7767C2.02325 18.4227 1.84625 17.9972 1.84625 17.5V8.34624C1.84625 8.13374 1.91817 7.95558 2.062 7.81174C2.20584 7.66808 2.384 7.59624 2.5965 7.59624C2.80917 7.59624 2.98725 7.66808 3.13075 7.81174C3.27442 7.95558 3.34625 8.13374 3.34625 8.34624V17.5C3.34625 17.5768 3.37825 17.6473 3.44225 17.7115C3.50642 17.7757 3.577 17.8077 3.654 17.8077H18.423C18.6355 17.8077 18.8137 17.8797 18.9575 18.0235C19.1012 18.1672 19.173 18.3453 19.173 18.558C19.173 18.7707 19.1012 18.9487 18.9575 19.0922C18.8137 19.2359 18.6355 19.3077 18.423 19.3077ZM7.15375 14.3077H6.84625V6.11549H7.15375C7.07042 6.11549 6.99834 6.14591 6.9375 6.20674C6.87667 6.26758 6.84625 6.33966 6.84625 6.42299V14C6.84625 14.0833 6.87667 14.1554 6.9375 14.2162C6.99834 14.2772 7.07042 14.3077 7.15375 14.3077Z" fill="#667080"/>
</g>
</svg>
