<svg width="24" height="24" viewBox="0 0 24 24" fill="none" xmlns="http://www.w3.org/2000/svg">
<mask id="mask0_322_1239" style="mask-type:alpha" maskUnits="userSpaceOnUse" x="0" y="0" width="24" height="24">
<rect width="24" height="24" fill="#D9D9D9"/>
</mask>
<g mask="url(#mask0_322_1239)">
<path d="M16 10.8845C16.2448 10.8845 16.4535 10.7983 16.626 10.626C16.7983 10.4535 16.8845 10.2448 16.8845 10C16.8845 9.75517 16.7983 9.5465 16.626 9.374C16.4535 9.20167 16.2448 9.1155 16 9.1155C15.7552 9.1155 15.5465 9.20167 15.374 9.374C15.2017 9.5465 15.1155 9.75517 15.1155 10C15.1155 10.2448 15.2017 10.4535 15.374 10.626C15.5465 10.7983 15.7552 10.8845 16 10.8845ZM8 8.75H13V7.25H8V8.75ZM4.875 20.5C4.34683 18.6768 3.819 16.8627 3.2915 15.0577C2.76383 13.2526 2.5 11.4 2.5 9.5C2.5 8.10767 2.98525 6.92625 3.95575 5.95575C4.92625 4.98525 6.10767 4.5 7.5 4.5H12.75C13.2077 3.89867 13.7568 3.415 14.3973 3.049C15.0376 2.683 15.7385 2.5 16.5 2.5C16.7757 2.5 17.0113 2.59775 17.2068 2.79325C17.4023 2.98875 17.5 3.22433 17.5 3.5C17.5 3.568 17.4907 3.63592 17.472 3.70375C17.4535 3.77175 17.434 3.83458 17.4135 3.89225C17.3212 4.13325 17.2426 4.38008 17.1777 4.63275C17.1131 4.88525 17.0577 5.14033 17.0115 5.398L19.6135 8H21.5V14.1095L18.771 15.0058L17.125 20.5H12.5V18.5H9.5V20.5H4.875ZM6 19H8V17H14V19H16L17.55 13.85L20 13.025V9.5H19L15.5 6C15.5 5.66667 15.5208 5.34583 15.5625 5.0375C15.6042 4.72917 15.6731 4.41983 15.7693 4.1095C15.2859 4.24283 14.8641 4.47525 14.5038 4.80675C14.1436 5.13808 13.8673 5.53583 13.675 6H7.5C6.53333 6 5.70833 6.34167 5.025 7.025C4.34167 7.70833 4 8.53333 4 9.5C4 11.1333 4.225 12.7292 4.675 14.2875C5.125 15.8458 5.56667 17.4167 6 19Z" fill="#667080"/>
</g>
</svg>
