<svg width="24" height="24" viewBox="0 0 24 24" fill="none" xmlns="http://www.w3.org/2000/svg">
<mask id="mask0_326_2429" style="mask-type:alpha" maskUnits="userSpaceOnUse" x="0" y="0" width="24" height="24">
<rect width="24" height="24" fill="#D9D9D9"/>
</mask>
<g mask="url(#mask0_326_2429)">
<path d="M11.25 16.75H12.75V15.75H13.8652C14.1166 15.75 14.3269 15.6654 14.4962 15.4963C14.6654 15.3269 14.75 15.1166 14.75 14.8652V12.1348C14.75 11.8834 14.6654 11.6731 14.4962 11.5037C14.3269 11.3346 14.1166 11.25 13.8652 11.25H10.75V9.75H14.75V8.25H12.75V7.25H11.25V8.25H10.1348C9.88342 8.25 9.67308 8.33458 9.50375 8.50375C9.33458 8.67308 9.25 8.88342 9.25 9.13475V11.8652C9.25 12.1166 9.33458 12.3269 9.50375 12.4963C9.67308 12.6654 9.88342 12.75 10.1348 12.75H13.25V14.25H9.25V15.75H11.25V16.75ZM4.30775 19.5C3.80258 19.5 3.375 19.325 3.025 18.975C2.675 18.625 2.5 18.1974 2.5 17.6923V6.30775C2.5 5.80258 2.675 5.375 3.025 5.025C3.375 4.675 3.80258 4.5 4.30775 4.5H19.6923C20.1974 4.5 20.625 4.675 20.975 5.025C21.325 5.375 21.5 5.80258 21.5 6.30775V17.6923C21.5 18.1974 21.325 18.625 20.975 18.975C20.625 19.325 20.1974 19.5 19.6923 19.5H4.30775ZM4.30775 18H19.6923C19.7693 18 19.8398 17.9679 19.9038 17.9038C19.9679 17.8398 20 17.7693 20 17.6923V6.30775C20 6.23075 19.9679 6.16025 19.9038 6.09625C19.8398 6.03208 19.7693 6 19.6923 6H4.30775C4.23075 6 4.16025 6.03208 4.09625 6.09625C4.03208 6.16025 4 6.23075 4 6.30775V17.6923C4 17.7693 4.03208 17.8398 4.09625 17.9038C4.16025 17.9679 4.23075 18 4.30775 18Z" fill="#667080"/>
</g>
</svg>
