<svg width="24" height="24" viewBox="0 0 24 24" fill="none" xmlns="http://www.w3.org/2000/svg">
<mask id="mask0_45_1232" style="mask-type:alpha" maskUnits="userSpaceOnUse" x="0" y="0" width="24" height="24">
<rect width="24" height="24" fill="#D9D9D9"/>
</mask>
<g mask="url(#mask0_45_1232)">
<path d="M7.23072 20.5C6.73356 20.5 6.30797 20.323 5.95397 19.969C5.59997 19.615 5.42297 19.1894 5.42297 18.6923V8C5.42297 7.50283 5.59997 7.07725 5.95397 6.72325C6.30797 6.36925 6.73356 6.19225 7.23072 6.19225H9.30772V4.30775C9.30772 3.81058 9.48472 3.385 9.83872 3.031C10.1927 2.677 10.6183 2.5 11.1155 2.5H12.8845C13.3816 2.5 13.8072 2.677 14.1612 3.031C14.5152 3.385 14.6922 3.81058 14.6922 4.30775V6.19225H16.7692C17.2664 6.19225 17.692 6.36925 18.046 6.72325C18.4 7.07725 18.577 7.50283 18.577 8V18.6923C18.577 19.1894 18.4 19.615 18.046 19.969C17.692 20.323 17.2664 20.5 16.7692 20.5V20.6152C16.7692 20.8603 16.683 21.0689 16.5105 21.2413C16.3381 21.4138 16.1295 21.5 15.8845 21.5C15.6396 21.5 15.4311 21.4138 15.2587 21.2413C15.0862 21.0689 15 20.8603 15 20.6152V20.5H8.99997V20.6152C8.99997 20.8603 8.91372 21.0689 8.74122 21.2413C8.56889 21.4138 8.36031 21.5 8.11547 21.5C7.87047 21.5 7.66181 21.4138 7.48947 21.2413C7.31697 21.0689 7.23072 20.8603 7.23072 20.6152V20.5ZM7.23072 19H16.7692C16.8589 19 16.9326 18.9712 16.9905 18.9135C17.0481 18.8558 17.077 18.7821 17.077 18.6923V8C17.077 7.91017 17.0481 7.83642 16.9905 7.77875C16.9326 7.72108 16.8589 7.69225 16.7692 7.69225H7.23072C7.14106 7.69225 7.06731 7.72108 7.00947 7.77875C6.95181 7.83642 6.92297 7.91017 6.92297 8V18.6923C6.92297 18.7821 6.95181 18.8558 7.00947 18.9135C7.06731 18.9712 7.14106 19 7.23072 19ZM10.0572 9.077C9.84472 9.077 9.66664 9.14883 9.52297 9.2925C9.37947 9.43633 9.30772 9.6145 9.30772 9.827V16.8652C9.30772 17.0777 9.37964 17.2559 9.52347 17.3997C9.66731 17.5434 9.84547 17.6152 10.058 17.6152C10.2706 17.6152 10.4487 17.5434 10.5922 17.3997C10.7359 17.2559 10.8077 17.0777 10.8077 16.8652V9.827C10.8077 9.6145 10.7358 9.43633 10.592 9.2925C10.4481 9.14883 10.2699 9.077 10.0572 9.077ZM13.942 9.077C13.7293 9.077 13.5512 9.14883 13.4077 9.2925C13.2641 9.43633 13.1922 9.6145 13.1922 9.827V16.8652C13.1922 17.0777 13.2641 17.2559 13.408 17.3997C13.5518 17.5434 13.7301 17.6152 13.9427 17.6152C14.1552 17.6152 14.3333 17.5434 14.477 17.3997C14.6205 17.2559 14.6922 17.0777 14.6922 16.8652V9.827C14.6922 9.6145 14.6203 9.43633 14.4765 9.2925C14.3326 9.14883 14.1545 9.077 13.942 9.077ZM10.8077 6.19225H13.1922V4.30775C13.1922 4.21792 13.1634 4.14417 13.1057 4.0865C13.0481 4.02883 12.9743 4 12.8845 4H11.1155C11.0256 4 10.9519 4.02883 10.8942 4.0865C10.8366 4.14417 10.8077 4.21792 10.8077 4.30775V6.19225Z" fill="#667080"/>
</g>
</svg>
